# xmcd CD database file
#
# Track frame offsets:
#	150
#	24928
#	66120
#	97579
#	124825
#	180137
#	193057
#	234571
#	282891
#
# Disc length: 4163 seconds
#
# Revision: 0
# Processed by: cddbd v1.5.1PL0 Copyright (c) Steve Scherf et al.
# Submitted via: CDex 1.51
#
DISCID=69104109
DTITLE=Wynton Marsalis - All That Jazz: The Best of Wynton Marsalis
DYEAR=2001
DGENRE=Jazz
TTITLE0=One by One
TTITLE1=My Funny Valentine
TTITLE2=Round 'Bout Midnight
TTITLE3=ETA
TTITLE4=Time Will Tell
TTITLE5=Blakey's Theme
TTITLE6=Angel Eyes
TTITLE7=Bitter Dose
TTITLE8=Wheel Within A Wheel
EXTD=YEAR: 2001
EXTT0=
EXTT1=
EXTT2=
EXTT3=
EXTT4=
EXTT5=
EXTT6=
EXTT7=
EXTT8=
PLAYORDER=
